<?xml version="1.0" encoding="utf-8"?>
<!-- Generator: Adobe Illustrator 16.0.0, SVG Export Plug-In . SVG Version: 6.00 Build 0)  -->
<!DOCTYPE svg PUBLIC "-//W3C//DTD SVG 1.1//EN" "http://www.w3.org/Graphics/SVG/1.1/DTD/svg11.dtd">
<svg version="1.1" id="Layer_1" xmlns="http://www.w3.org/2000/svg" xmlns:xlink="http://www.w3.org/1999/xlink" x="0px" y="0px"
	 width="371.982px" height="371.981px" viewBox="0 0 371.982 371.981" enable-background="new 0 0 371.982 371.981"
	 xml:space="preserve">
<path fill="#FFFFFF" d="M341.294,199.324c-7.652-13.182-17.646-25.132-29.189-35.838c-0.316-0.293-0.523-0.668-0.59-1.089
	c-0.572-3.185-1.207-6.344-1.951-9.473c-3.834-15.956-6.494-29.579-15.117-43.541c-16.129-26.122-30.105-33.667,7.229-43.013
	c9.451-2.365,5.014-16.811-4.414-14.449c-15.453,3.871-0.359,1.478-15.662,5.941c-26.822,7.816-34.311-0.422-57.355-13.653
	c-27.011-15.502-26.111-18.203-56.681-23.914c-9.542-1.786-13.183,12.874-3.614,14.669c31.355,5.857,30.505,8.904,56.592,24.876
	c-2.072,4.185-1.356,2.755-3.423,6.934c-45.015-17.457-96.104-21.629-130.312,14.962c-5.241,5.604-0.387,10.281-3.814,16.415
	c-0.251,0.447-0.667,0.762-1.17,0.9c-15.072,4.012-29.591,12.753-42.891,27.837c-40.262,45.645-19.737,109.53,20.565,146.403
	c0.208,0.189,0.368,0.438,0.474,0.703c24.625,66.059,96.099,91.41,160.764,70.914c15.768-4.986,50.829-30.928,56.534-34.91
	c0.219-0.164,4.232,1.34,4.496,1.297C331.199,303.108,369.47,247.868,341.294,199.324 M232,90.935
	c2.986,1.293,5.926,2.64,8.814,4.063c-3.314-1.313-6.709-2.479-10.174-3.485C231.099,91.324,231.546,91.124,232,90.935
	 M216.727,145.538h28.138v104.59H218.12v-14.562h-0.599c-3.568,6.068-8.19,10.453-13.862,13.145
	c-5.683,2.701-11.494,4.051-17.442,4.051c-7.527,0-13.701-1.016-18.526-3.035c-4.821-2.027-8.616-4.887-11.383-8.602
	c-2.78-3.715-4.725-8.221-5.847-13.549c-1.123-5.33-1.688-11.234-1.688-17.705v-64.333h28.138v59.071
	c0,8.641,1.317,15.07,3.964,19.322c2.642,4.244,7.327,6.369,14.063,6.369c7.658,0,13.205-2.324,16.65-6.979
	c3.427-4.652,5.14-12.299,5.14-22.966V145.538z M112.971,79.034c27.775-14.771,67.176-7.621,99.564,4.128
	c-2.796,1.331-5.574,2.703-8.309,4.128c-1.564-0.065-3.103-0.242-4.69-0.242c-23.091,0-44.545,7.007-62.39,18.981
	c-0.532,0.366-1.191,0.431-1.791,0.203c-6.491-2.518-13.024-4.563-19.562-6.035C105.363,97.862,103.532,84.049,112.971,79.034
	 M81.24,124.071c0.969-4.148,2.15-7.993,3.504-11.576c0.257-0.692,0.872-1.19,1.599-1.309c9.297-1.554,18.788-0.813,28.254,1.537
	c2.101,0.52,2.399,3.478,0.407,4.333c-12.129,5.216-22.995,12.274-32.399,20.802c-1.374,1.246-3.605,0.217-3.407-1.634
	C79.615,132.197,80.292,128.141,81.24,124.071 M105.591,138.06c-8.432,12.927-14.264,27.691-16.76,43.57
	c-0.331,2.069-3.214,2.323-3.921,0.347c-2.304-6.454-3.987-13.12-5.029-19.907c-0.091-0.583,0.069-1.176,0.432-1.636
	c1.775-2.244,3.639-4.458,5.647-6.604C91.888,147.484,98.52,142.328,105.591,138.06 M53.054,244.325
	c-3.006-3.824-5.856-7.803-8.46-12.027c-18.411-29.809-15.1-66.545,4.094-92.371c7.211-9.684,22.834-5.345,23.406,6.719
	c0.16,3.535,0.503,7.08,1.017,10.605c0.067,0.478-0.039,0.946-0.301,1.344C56.873,182.562,49.434,212.608,53.054,244.325
	 M74.736,265.839c-15.715-12.236-14.025-41.555-6.893-63.648c2.977-9.209,6.777-8.355,10.173,0.688
	c12.13,32.221,25.769,87.174,47.402,89.719C103.881,290.065,91.801,279.118,74.736,265.839 M162.133,337.499
	c-22.833-0.994-42.908-8.811-59.205-21.021c-5.639-4.211-1.234-13.02,5.577-11.258c9.81,2.516,19.967,4.152,30.247,4.936
	c0.451,0.039,0.867,0.229,1.192,0.533c14.983,14.654,35.283,22.166,56.785,23.803C185.646,336.919,174.064,338.028,162.133,337.499
	 M217.337,321.769c-25.429,6.982-29.345-1.943-50.939-11.555c3.562-0.256,7.09-0.648,10.623-1.117
	c7.269,1.486,14.81,2.264,22.515,2.264c9.002,0,17.71-1.176,26.091-3.174c0.291-0.066,0.582-0.066,0.877-0.006
	c6.867,1.607,13.721,2.889,20.473,3.648C245.582,312.837,218.756,320.804,217.337,321.769 M265.085,296.169
	c-0.383,0.373-0.881,0.596-1.414,0.643c-3.145,0.195-6.223,0.229-9.217,0.131c10.428-5.863,19.768-13.387,27.783-22.156
	C277.24,282.462,271.464,289.61,265.085,296.169 M314.607,276.257c-4.531,3.389-11.277,0.344-11.408-5.295
	c-0.062-3.266-0.566-6.533-1.402-9.781c-0.104-0.383-0.078-0.793,0.072-1.156c6.277-15.967,10.203-33.008,11.701-50.207
	c0.66-7.541,10.619-9.516,14.133-2.811c2.363,4.51,4.342,9.174,5.867,13.99C341.203,245.118,331.39,263.692,314.607,276.257"/>
</svg>
