<?xml version="1.0" standalone="no"?>
<!DOCTYPE svg PUBLIC "-//W3C//DTD SVG 20010904//EN"
 "http://www.w3.org/TR/2001/REC-SVG-20010904/DTD/svg10.dtd">
<svg version="1.0" xmlns="http://www.w3.org/2000/svg"
 width="400.000000pt" height="400.000000pt" viewBox="0 0 400.000000 400.000000"
 preserveAspectRatio="xMidYMid meet">

<g transform="translate(0.000000,400.000000) scale(0.100000,-0.100000)"
fill="#000000" stroke="none">
<path d="M1090 2208 c0 -9 17 -20 39 -27 21 -6 50 -20 63 -32 l23 -20 -40 8
c-22 4 -70 8 -107 8 -72 -1 -112 -19 -134 -64 -6 -12 -31 -35 -56 -50 -90 -57
-112 -170 -53 -265 108 -172 154 -214 253 -231 67 -11 123 2 193 44 35 21 78
41 95 45 17 4 47 24 68 45 61 62 62 147 2 217 -18 21 -37 55 -41 74 -4 19 -20
56 -37 82 -32 50 -30 64 8 78 44 17 27 30 -33 24 -48 -4 -64 -2 -93 15 -84 50
-150 72 -150 49z m56 -99 c24 -6 44 -15 44 -19 0 -4 -19 -10 -43 -12 -23 -3
-59 -13 -78 -22 -43 -20 -89 -8 -89 23 0 35 85 50 166 30z m-156 -87 c0 -8
-52 -42 -64 -42 -8 0 -8 35 1 43 9 10 63 9 63 -1z m-86 -57 c3 -9 -3 -39 -14
-68 -11 -28 -21 -71 -22 -94 -2 -24 -6 -43 -10 -43 -3 0 -14 20 -23 45 -19 50
-15 113 11 153 17 25 49 29 58 7z m47 -40 c-12 -33 -17 -40 -22 -27 -8 22 16
69 37 72 1 0 -6 -20 -15 -45z m169 -27 c0 -102 17 -131 61 -108 16 9 19 22 19
90 l0 80 34 0 35 0 -2 -107 c-2 -106 -3 -108 -26 -111 -13 -2 -27 2 -32 10 -6
10 -11 10 -21 0 -13 -13 -76 -16 -95 -4 -21 13 -33 62 -33 138 l0 74 30 0 30
0 0 -62z m-177 -128 c16 -44 35 -87 43 -95 25 -25 -6 -18 -47 11 -45 31 -63
71 -54 116 15 70 24 65 58 -32z m508 25 c8 -44 -24 -115 -53 -115 -12 0 -10
66 4 112 14 46 40 48 49 3z m-136 -144 c-3 -6 -11 -11 -17 -11 -6 0 -6 6 2 15
14 17 26 13 15 -4z m-221 -62 l59 -29 -47 0 c-65 0 -154 39 -141 61 9 13 65
-1 129 -32z m160 21 c-19 -19 -107 -23 -129 -6 -19 14 -14 15 60 16 54 0 76
-3 69 -10z"/>
<path d="M2570 2033 c-29 -11 -50 -36 -50 -60 0 -16 -7 -27 -20 -30 -11 -3
-20 -14 -20 -24 0 -12 7 -19 20 -19 19 0 20 -7 20 -94 0 -98 6 -112 40 -101
18 6 20 15 20 101 0 94 0 94 25 94 18 0 25 5 25 20 0 13 -7 20 -19 20 -11 0
-22 4 -25 9 -10 16 6 41 26 41 14 0 19 6 16 23 -3 22 -28 31 -58 20z"/>
<path d="M1960 1855 c0 -53 4 -105 10 -115 5 -10 26 -24 45 -30 29 -9 41 -9
67 5 21 10 34 12 36 5 2 -5 16 -10 31 -10 l28 0 7 110 c4 61 4 115 1 120 -3 6
-19 10 -36 10 l-29 0 0 -78 c0 -83 -16 -122 -49 -122 -34 0 -46 29 -46 114 l0
81 -32 3 -33 3 0 -96z"/>
<path d="M2237 1943 c-4 -3 -7 -57 -7 -120 l0 -113 35 0 35 0 0 83 c0 91 8
107 51 107 34 0 39 -13 39 -111 l0 -79 36 0 36 0 -4 101 c-3 91 -6 103 -27
120 -28 23 -93 25 -111 4 -7 -8 -16 -15 -21 -15 -5 0 -9 7 -9 15 0 15 -40 21
-53 8z"/>
<path d="M2656 1871 c-8 -81 6 -146 34 -161 28 -15 86 -12 104 5 8 8 17 15 20
15 3 0 6 -7 6 -15 0 -10 10 -15 30 -15 l30 0 0 120 0 120 -29 0 c-29 0 -29 0
-36 -77 -7 -90 -14 -107 -44 -111 -41 -6 -51 14 -51 104 l0 84 -29 0 c-28 0
-29 -1 -35 -69z"/>
<path d="M2920 1915 c0 -22 4 -24 57 -27 l57 -3 -62 -66 c-43 -47 -62 -74 -62
-93 l0 -26 110 0 110 0 0 25 c0 23 -3 24 -65 27 l-64 3 59 65 c41 45 59 73 60
93 l0 27 -100 0 c-99 0 -100 0 -100 -25z"/>
<path d="M3160 1915 c0 -22 4 -24 56 -27 l57 -3 -61 -65 c-44 -46 -61 -73 -62
-92 l0 -28 111 0 c109 0 110 0 107 23 -3 19 -10 23 -65 27 l-62 5 59 65 c41
45 59 73 60 93 l0 27 -100 0 c-99 0 -100 0 -100 -25z"/>
</g>
</svg>
